<svg xmlns="http://www.w3.org/2000/svg" xmlns:xlink="http://www.w3.org/1999/xlink" viewBox="0 0 1920 1920"><defs><clipPath id="clip-path"><rect id="Clip_Boundaries" data-name="Clip Boundaries" x="207.07" y="374.51" width="1505.86" height="1170.97" style="fill:none"/></clipPath><clipPath id="clip-path-2"><polygon id="Clip_Shadow" data-name="Clip Shadow" points="1961.17 622.75 698.84 1885.09 207.07 1393.33 207.07 967.24 460.14 967.24 790.2 1297.3 1712.69 374.8 1712.4 374.51 1712.93 374.51 1961.17 622.75" style="fill:none"/></clipPath><linearGradient id="linear-gradient" x1="915.16" y1="1420.46" x2="1027.36" y2="1308.43" gradientTransform="matrix(0.71, -0.45, 0.71, 0.45, -699.41, 1209.79)" gradientUnits="userSpaceOnUse"><stop offset="0"/><stop offset="0.13" stop-opacity="0.65"/><stop offset="1" stop-opacity="0"/></linearGradient><linearGradient id="linear-gradient-2" x1="915.16" y1="1420.46" x2="1027.36" y2="1308.43" gradientTransform="matrix(0.71, -0.22, 0.71, 0.22, -718.34, 1315.59)" gradientUnits="userSpaceOnUse"><stop offset="0"/><stop offset="0.05" stop-opacity="0.89"/><stop offset="1" stop-opacity="0"/></linearGradient></defs><g style="isolation:isolate"><g id="Layer_2" data-name="Layer 2"><g id="AppIcon"><rect id="Background" width="1920" height="1920" style="fill:#fff"/><g id="Check"><g style="clip-path:url(#clip-path)"><g style="clip-path:url(#clip-path-2)"><polygon id="Right" points="1712.93 374.51 1712.93 871 1038.43 1545.49 1038.4 1545.46 790.18 1297.26 1712.93 374.51" style="fill:#5d6d89"/><rect id="Shadow_Soft" data-name="Shadow Soft" x="776.67" y="1329.98" width="351.03" height="107.09" transform="translate(1257.19 -268.07) rotate(45)" style="opacity:0.33;mix-blend-mode:multiply;fill:url(#linear-gradient)"/><rect id="Shadow_Hard" data-name="Shadow Hard" x="757.74" y="1375.68" width="351.03" height="53.55" transform="translate(1265.03 -249.14) rotate(45)" style="opacity:0.33;mix-blend-mode:multiply;fill:url(#linear-gradient-2)"/><polygon id="Left" points="1038.43 1545.49 541.96 1545.49 207.07 1210.6 207.07 967.24 460.17 967.24 790.18 1297.26 1038.4 1545.46 1038.43 1545.49" style="fill:#3b4456"/></g></g></g></g></g></g></svg>