<svg xmlns="http://www.w3.org/2000/svg" xmlns:xlink="http://www.w3.org/1999/xlink" viewBox="0 0 1505.86 1170.98"><defs><clipPath id="clip-path"><rect id="Clip_Boundaries" data-name="Clip Boundaries" width="1505.86" height="1170.97" style="fill:none"/></clipPath><clipPath id="clip-path-2"><polygon id="Clip_Shadow" data-name="Clip Shadow" points="1754.1 248.24 491.76 1510.58 0 1018.81 0 592.73 253.07 592.73 583.13 922.78 1505.62 0.29 1505.33 0 1505.86 0 1754.1 248.24" style="fill:none"/></clipPath><linearGradient id="linear-gradient" x1="708.09" y1="1045.95" x2="820.29" y2="933.92" gradientTransform="matrix(0.71, -0.45, 0.71, 0.45, -495.24, 910.33)" gradientUnits="userSpaceOnUse"><stop offset="0"/><stop offset="0.13" stop-opacity="0.65"/><stop offset="1" stop-opacity="0"/></linearGradient><linearGradient id="linear-gradient-2" x1="708.09" y1="1045.95" x2="820.29" y2="933.92" gradientTransform="matrix(0.71, -0.22, 0.71, 0.22, -514.17, 978.6)" gradientUnits="userSpaceOnUse"><stop offset="0"/><stop offset="0.05" stop-opacity="0.89"/><stop offset="1" stop-opacity="0"/></linearGradient></defs><g style="isolation:isolate"><g id="Layer_2" data-name="Layer 2"><g id="AppIcon"><g id="Check"><g style="clip-path:url(#clip-path)"><g style="clip-path:url(#clip-path-2)"><polygon id="Right" points="1505.86 0 1505.86 496.48 831.36 1170.97 831.33 1170.95 583.11 922.74 1505.86 0" style="fill:#5d6d89"/><rect id="Shadow_Soft" data-name="Shadow Soft" x="569.6" y="955.47" width="351.03" height="107.09" transform="translate(931.72 -231.34) rotate(45)" style="opacity:0.33;mix-blend-mode:multiply;fill:url(#linear-gradient)"/><rect id="Shadow_Hard" data-name="Shadow Hard" x="550.67" y="1001.17" width="351.03" height="53.55" transform="translate(939.56 -212.41) rotate(45)" style="opacity:0.33;mix-blend-mode:multiply;fill:url(#linear-gradient-2)"/><polygon id="Left" points="831.36 1170.97 334.88 1170.97 0 836.09 0 592.73 253.1 592.73 583.11 922.74 831.33 1170.95 831.36 1170.97" style="fill:#3b4456"/></g></g></g></g></g></g></svg>