<svg xmlns="http://www.w3.org/2000/svg" viewBox="0 0 435.87 338.7"><g id="Layer_2" data-name="Layer 2"><g id="Layer_2-2" data-name="Layer 2"><g id="Check_Opacity" data-name="Check Opacity" style="opacity:0.1"><g id="Check"><path d="M0,171.17c.63,0,1.25.05,1.88.05q34.82,0,69.62,0a3.71,3.71,0,0,1,2.89,1.2q46.5,46.53,93,93a11,11,0,0,1,1.08,1.46L435.38,0l.47.3V1.68q0,69.91,0,139.82a3.73,3.73,0,0,1-1.22,2.9q-91.47,91.42-182.9,182.89-5.07,5.06-10,10.26a3.51,3.51,0,0,1-2.81,1.15c-7.28,0-14.57,0-21.85,0-17.61-.05-35.22-.15-52.82-.18q-32.94,0-65.86,0a3.56,3.56,0,0,1-2.77-1.15q-47.2-47.26-94.46-94.48c-.37-.38-.78-.72-1.18-1.08Z" style="fill:#fff"/></g></g></g></g></svg>