<svg id="Layer_2" data-name="Layer 2" xmlns="http://www.w3.org/2000/svg" xmlns:xlink="http://www.w3.org/1999/xlink" viewBox="0 0 1920 1920"><defs><linearGradient id="linear-gradient" y1="1920" x2="1920" gradientUnits="userSpaceOnUse"><stop offset="0" stop-color="#3a4356"/><stop offset="0.92" stop-color="#3f495d"/><stop offset="1" stop-color="#404a5e"/></linearGradient></defs><rect id="Background" width="1920" height="1920" style="fill:url(#linear-gradient)"/><g id="Check" style="opacity:0.1"><path d="M742.06,961.82c.63,0,1.26,0,1.88,0q34.81,0,69.62,0a3.7,3.7,0,0,1,2.89,1.2q46.51,46.53,93,93a13.06,13.06,0,0,1,1.08,1.46l266.86-266.88.47.3v1.38q0,69.92,0,139.82a3.73,3.73,0,0,1-1.22,2.9q-91.48,91.42-182.91,182.88-5.07,5.07-10,10.27a3.5,3.5,0,0,1-2.8,1.15c-7.29,0-14.57,0-21.86,0-17.61,0-35.21-.15-52.82-.18q-32.93,0-65.86,0a3.55,3.55,0,0,1-2.77-1.16q-47.21-47.25-94.45-94.48c-.38-.37-.79-.72-1.19-1.07Z" style="fill:#fff"/></g></svg>